<mxfile host="app.diagrams.net" modified="2024-05-12T10:22:47.521Z" agent="Mozilla/5.0 (Windows NT 10.0; Win64; x64) AppleWebKit/537.36 (KHTML, like Gecko) Chrome/124.0.0.0 Safari/537.36" etag="30iTxyEMwr2g4_UzZ-ti" version="24.4.0" type="github">
  <diagram id="C5RBs43oDa-KdzZeNtuy" name="Page-1">
    <mxGraphModel dx="1332" dy="502" grid="1" gridSize="10" guides="1" tooltips="1" connect="1" arrows="1" fold="1" page="1" pageScale="1" pageWidth="827" pageHeight="1169" math="0" shadow="0">
      <root>
        <mxCell id="WIyWlLk6GJQsqaUBKTNV-0" />
        <mxCell id="WIyWlLk6GJQsqaUBKTNV-1" parent="WIyWlLk6GJQsqaUBKTNV-0" />
        <mxCell id="WIyWlLk6GJQsqaUBKTNV-2" value="" style="rounded=0;html=1;jettySize=auto;orthogonalLoop=1;fontSize=11;endArrow=block;endFill=0;endSize=8;strokeWidth=1;shadow=0;labelBackgroundColor=none;edgeStyle=orthogonalEdgeStyle;" parent="WIyWlLk6GJQsqaUBKTNV-1" source="WIyWlLk6GJQsqaUBKTNV-3" edge="1">
          <mxGeometry relative="1" as="geometry">
            <mxPoint x="220" y="170" as="targetPoint" />
          </mxGeometry>
        </mxCell>
        <mxCell id="WIyWlLk6GJQsqaUBKTNV-3" value="Start" style="rounded=1;whiteSpace=wrap;html=1;fontSize=12;glass=0;strokeWidth=1;shadow=0;" parent="WIyWlLk6GJQsqaUBKTNV-1" vertex="1">
          <mxGeometry x="125" y="30" width="190" height="80" as="geometry" />
        </mxCell>
        <mxCell id="ABy2imeDhSgxqICq3Kr--2" value="" style="edgeStyle=orthogonalEdgeStyle;rounded=0;orthogonalLoop=1;jettySize=auto;html=1;" edge="1" parent="WIyWlLk6GJQsqaUBKTNV-1" source="ABy2imeDhSgxqICq3Kr--0" target="ABy2imeDhSgxqICq3Kr--1">
          <mxGeometry relative="1" as="geometry" />
        </mxCell>
        <mxCell id="ABy2imeDhSgxqICq3Kr--0" value="Data IPM, Rata-Rata AHH, dan Tingkat Penyelesaian Pendidikan Tingkat SMA" style="shape=parallelogram;perimeter=parallelogramPerimeter;whiteSpace=wrap;html=1;fixedSize=1;" vertex="1" parent="WIyWlLk6GJQsqaUBKTNV-1">
          <mxGeometry x="97.51" y="170" width="240" height="110" as="geometry" />
        </mxCell>
        <mxCell id="ABy2imeDhSgxqICq3Kr--5" value="" style="edgeStyle=orthogonalEdgeStyle;rounded=0;orthogonalLoop=1;jettySize=auto;html=1;" edge="1" parent="WIyWlLk6GJQsqaUBKTNV-1" source="ABy2imeDhSgxqICq3Kr--1" target="ABy2imeDhSgxqICq3Kr--4">
          <mxGeometry relative="1" as="geometry" />
        </mxCell>
        <mxCell id="ABy2imeDhSgxqICq3Kr--1" value="Membentuk Model Persamaan Regresi Liear Berganda" style="rounded=0;whiteSpace=wrap;html=1;" vertex="1" parent="WIyWlLk6GJQsqaUBKTNV-1">
          <mxGeometry x="124.38" y="330" width="186.25" height="60" as="geometry" />
        </mxCell>
        <mxCell id="ABy2imeDhSgxqICq3Kr--3" value="Uji Hipotesis" style="rounded=0;whiteSpace=wrap;html=1;" vertex="1" parent="WIyWlLk6GJQsqaUBKTNV-1">
          <mxGeometry x="160" y="430" width="120" height="30" as="geometry" />
        </mxCell>
        <mxCell id="ABy2imeDhSgxqICq3Kr--7" value="" style="edgeStyle=orthogonalEdgeStyle;rounded=0;orthogonalLoop=1;jettySize=auto;html=1;" edge="1" parent="WIyWlLk6GJQsqaUBKTNV-1" source="ABy2imeDhSgxqICq3Kr--4" target="ABy2imeDhSgxqICq3Kr--6">
          <mxGeometry relative="1" as="geometry" />
        </mxCell>
        <mxCell id="ABy2imeDhSgxqICq3Kr--14" value="" style="edgeStyle=orthogonalEdgeStyle;rounded=0;orthogonalLoop=1;jettySize=auto;html=1;" edge="1" parent="WIyWlLk6GJQsqaUBKTNV-1" source="ABy2imeDhSgxqICq3Kr--4" target="ABy2imeDhSgxqICq3Kr--13">
          <mxGeometry relative="1" as="geometry" />
        </mxCell>
        <mxCell id="ABy2imeDhSgxqICq3Kr--4" value="Pengaruh Signifikan" style="rhombus;whiteSpace=wrap;html=1;" vertex="1" parent="WIyWlLk6GJQsqaUBKTNV-1">
          <mxGeometry x="172.51" y="505" width="90" height="115" as="geometry" />
        </mxCell>
        <mxCell id="ABy2imeDhSgxqICq3Kr--10" style="edgeStyle=orthogonalEdgeStyle;rounded=0;orthogonalLoop=1;jettySize=auto;html=1;entryX=1;entryY=0.5;entryDx=0;entryDy=0;" edge="1" parent="WIyWlLk6GJQsqaUBKTNV-1" source="ABy2imeDhSgxqICq3Kr--6" target="ABy2imeDhSgxqICq3Kr--3">
          <mxGeometry relative="1" as="geometry">
            <Array as="points">
              <mxPoint x="388" y="445" />
            </Array>
          </mxGeometry>
        </mxCell>
        <mxCell id="ABy2imeDhSgxqICq3Kr--6" value="Mengeluarkan Satu Variabel Independen" style="whiteSpace=wrap;html=1;" vertex="1" parent="WIyWlLk6GJQsqaUBKTNV-1">
          <mxGeometry x="327.51" y="532.5" width="120" height="60" as="geometry" />
        </mxCell>
        <mxCell id="ABy2imeDhSgxqICq3Kr--11" value="Tidak" style="text;html=1;align=center;verticalAlign=middle;resizable=0;points=[];autosize=1;strokeColor=none;fillColor=none;" vertex="1" parent="WIyWlLk6GJQsqaUBKTNV-1">
          <mxGeometry x="265" y="520" width="50" height="30" as="geometry" />
        </mxCell>
        <mxCell id="ABy2imeDhSgxqICq3Kr--12" value="Ya" style="text;html=1;align=center;verticalAlign=middle;resizable=0;points=[];autosize=1;strokeColor=none;fillColor=none;" vertex="1" parent="WIyWlLk6GJQsqaUBKTNV-1">
          <mxGeometry x="180" y="620" width="40" height="30" as="geometry" />
        </mxCell>
        <mxCell id="ABy2imeDhSgxqICq3Kr--17" value="" style="edgeStyle=orthogonalEdgeStyle;rounded=0;orthogonalLoop=1;jettySize=auto;html=1;" edge="1" parent="WIyWlLk6GJQsqaUBKTNV-1" source="ABy2imeDhSgxqICq3Kr--13" target="ABy2imeDhSgxqICq3Kr--16">
          <mxGeometry relative="1" as="geometry" />
        </mxCell>
        <mxCell id="ABy2imeDhSgxqICq3Kr--13" value="Uji Asumsi Klasik" style="whiteSpace=wrap;html=1;" vertex="1" parent="WIyWlLk6GJQsqaUBKTNV-1">
          <mxGeometry x="157.51" y="660" width="120" height="60" as="geometry" />
        </mxCell>
        <mxCell id="ABy2imeDhSgxqICq3Kr--19" value="" style="edgeStyle=orthogonalEdgeStyle;rounded=0;orthogonalLoop=1;jettySize=auto;html=1;" edge="1" parent="WIyWlLk6GJQsqaUBKTNV-1" source="ABy2imeDhSgxqICq3Kr--16" target="ABy2imeDhSgxqICq3Kr--18">
          <mxGeometry relative="1" as="geometry" />
        </mxCell>
        <mxCell id="ABy2imeDhSgxqICq3Kr--25" value="" style="edgeStyle=orthogonalEdgeStyle;rounded=0;orthogonalLoop=1;jettySize=auto;html=1;" edge="1" parent="WIyWlLk6GJQsqaUBKTNV-1" source="ABy2imeDhSgxqICq3Kr--16" target="ABy2imeDhSgxqICq3Kr--24">
          <mxGeometry relative="1" as="geometry" />
        </mxCell>
        <mxCell id="ABy2imeDhSgxqICq3Kr--16" value="Asumsi Terpenuhi" style="rhombus;whiteSpace=wrap;html=1;" vertex="1" parent="WIyWlLk6GJQsqaUBKTNV-1">
          <mxGeometry x="171.26999999999998" y="800" width="92.49" height="110" as="geometry" />
        </mxCell>
        <mxCell id="ABy2imeDhSgxqICq3Kr--20" style="edgeStyle=orthogonalEdgeStyle;rounded=0;orthogonalLoop=1;jettySize=auto;html=1;entryX=1;entryY=0.5;entryDx=0;entryDy=0;" edge="1" parent="WIyWlLk6GJQsqaUBKTNV-1" source="ABy2imeDhSgxqICq3Kr--18" target="ABy2imeDhSgxqICq3Kr--13">
          <mxGeometry relative="1" as="geometry">
            <Array as="points">
              <mxPoint x="390" y="690" />
            </Array>
          </mxGeometry>
        </mxCell>
        <mxCell id="ABy2imeDhSgxqICq3Kr--18" value="Melakukan Penanganan Transformasi Data" style="whiteSpace=wrap;html=1;" vertex="1" parent="WIyWlLk6GJQsqaUBKTNV-1">
          <mxGeometry x="330.005" y="825" width="120" height="60" as="geometry" />
        </mxCell>
        <mxCell id="ABy2imeDhSgxqICq3Kr--23" value="Tidak" style="text;html=1;align=center;verticalAlign=middle;resizable=0;points=[];autosize=1;strokeColor=none;fillColor=none;" vertex="1" parent="WIyWlLk6GJQsqaUBKTNV-1">
          <mxGeometry x="265" y="825" width="50" height="30" as="geometry" />
        </mxCell>
        <mxCell id="ABy2imeDhSgxqICq3Kr--28" value="" style="edgeStyle=orthogonalEdgeStyle;rounded=0;orthogonalLoop=1;jettySize=auto;html=1;" edge="1" parent="WIyWlLk6GJQsqaUBKTNV-1" source="ABy2imeDhSgxqICq3Kr--24" target="ABy2imeDhSgxqICq3Kr--27">
          <mxGeometry relative="1" as="geometry" />
        </mxCell>
        <mxCell id="ABy2imeDhSgxqICq3Kr--24" value="Hasil Dan Pembahasan (Integrasi Model)" style="whiteSpace=wrap;html=1;" vertex="1" parent="WIyWlLk6GJQsqaUBKTNV-1">
          <mxGeometry x="157.505" y="980" width="120" height="60" as="geometry" />
        </mxCell>
        <mxCell id="ABy2imeDhSgxqICq3Kr--26" value="Ya" style="text;html=1;align=center;verticalAlign=middle;resizable=0;points=[];autosize=1;strokeColor=none;fillColor=none;" vertex="1" parent="WIyWlLk6GJQsqaUBKTNV-1">
          <mxGeometry x="172.51" y="930" width="40" height="30" as="geometry" />
        </mxCell>
        <mxCell id="ABy2imeDhSgxqICq3Kr--27" value="Selesai" style="rounded=1;whiteSpace=wrap;html=1;" vertex="1" parent="WIyWlLk6GJQsqaUBKTNV-1">
          <mxGeometry x="157.51" y="1080" width="120" height="30" as="geometry" />
        </mxCell>
      </root>
    </mxGraphModel>
  </diagram>
</mxfile>
